<svg width="150" height="179" viewBox="0 0 150 179" xmlns="http://www.w3.org/2000/svg">
  <defs>
    <linearGradient id="grad1" x1="0%" y1="0%" x2="100%" y2="78.9%">
      <stop offset="0%" style="stop-color:#4C5FB8;stop-opacity:1" />
      <stop offset="100%" style="stop-color:#8DA5DE;stop-opacity:1" />
    </linearGradient>
    <linearGradient id="grad2" x1="0%" y1="0%" x2="78.9%" y2="100%">
      <stop offset="0%" style="stop-color:#4C5FB8;stop-opacity:1" />
      <stop offset="100%" style="stop-color:#8DA5DE;stop-opacity:1" />
    </linearGradient>
    <linearGradient id="grad3" x1="100%" y1="78.9%" x2="0%" y2="0%">
      <stop offset="0%" style="stop-color:#4C5FB8;stop-opacity:1" />
      <stop offset="100%" style="stop-color:#8DA5DE;stop-opacity:1" />
    </linearGradient>
    <linearGradient id="grad4" x1="78.9%" y1="100%" x2="0%" y2="0%">
      <stop offset="0%" style="stop-color:#4C5FB8;stop-opacity:1" />
      <stop offset="100%" style="stop-color:#8DA5DE;stop-opacity:1" />
    </linearGradient>
  </defs>
  <g fill="url(#grad1)">
    <polygon points="50,0 150,58 150,88 50,30" />
    <polygon points="50,40 150,98 150,108 50,50" />
  </g>
  <g fill="url(#grad2)">
    <polygon points="100,78.8 100,178.8 130,161.5 130,96.2" />
    <polygon points="140,102 140,155.8 150,150.9 150,107.7" />
  </g>
  <g fill="url(#grad3)">
    <polygon points="100,178.8 0,122.3 0,92.3 100,148.8" />
    <polygon points="100,138.8 0,82.3 0,71.3 100,127.8" />
  </g>
  <g fill="url(#grad4)">
    <polygon points="50,100 50,0 20,17.3 20,82.7" />
    <polygon points="10,77 10,23.1 0,28.9 0,71.1" />
  </g>
</svg>
